# xmcd
#
# Track frame offsets:
#   150
#   12330
#   22715
#   43240
#   52070
#   67240
#   78918
#   88983
#   102083
#   112480
#   123065
#   136528
#   146460
#   160370
#   170670
#   185845
#   197025
#   208098
#   222883
#   234580
#   244960
#   255563
#   269503
#   279823
#   292810
#   305050
#   318203
#   330240
#
# Disc length: 4545 seconds
#
# Revision: 3
# Processed by: cddbd v1.5.1PL0 Copyright (c) Steve Scherf et al.
# Submitted via: Media_Universe 3.0
#
DISCID=9f11bf1c
DTITLE=Big Maybelle - Blues, Candy and Big Maybelle
DYEAR=1900
DGENRE=Blues
TTITLE0=Candy
TTITLE1=Rind Dang Dilly
TTITLE2=Blues Early, Early
TTITLE3=A Little Bird Told Me
TTITLE4=So Long
TTITLE5=That's A Pretty Good Love
TTITLE6=Tell Me Who
TTITLE7=Ramblin' Blues
TTITLE8=Rockhouse
TTITLE9=I Don't Want To Cry
TTITLE10=Pitiful
TTITLE11=A Good Man Is Hard To Find
TTITLE12=How It Lies
TTITLE13=Goin' Home Baby
TTITLE14=So Long
TTITLE15=Say It Isn't So
TTITLE16=If I Could Be With You
TTITLE17=Goodnight Wherever You Are
TTITLE18=That's A Pretty Good Love
TTITLE19=White Christmas
TTITLE20=Silent Night
TTITLE21=How It Lies
TTITLE22=Goin' Home Baby
TTITLE23=I Ain't Got Nobody
TTITLE24=I Understand
TTITLE25=I Got It Bad
TTITLE26=Some Of These Days
TTITLE27=Until The Real Thing Comes Along
EXTD=
EXTT0=
EXTT1=
EXTT2=
EXTT3=
EXTT4=
EXTT5=
EXTT6=
EXTT7=
EXTT8=
EXTT9=
EXTT10=
EXTT11=
EXTT12=
EXTT13=
EXTT14=
EXTT15=
EXTT16=
EXTT17=
EXTT18=
EXTT19=
EXTT20=
EXTT21=
EXTT22=
EXTT23=
EXTT24=
EXTT25=
EXTT26=
EXTT27=
PLAYORDER=
